<svg width="24" height="24" viewBox="0 0 24 24" fill="none" xmlns="http://www.w3.org/2000/svg">
<g id="f7:info">
<path id="Vector" d="M10.428 5.67675C10.428 6.48032 11.0708 7.12317 11.8744 7.12317C12.6878 7.12317 13.3208 6.48032 13.311 5.67675C13.311 4.86332 12.6878 4.22046 11.8744 4.22046C11.0708 4.22046 10.428 4.86332 10.428 5.67675ZM7.93713 18.956C7.93713 19.448 8.28856 19.7793 8.82085 19.7793H15.1791C15.7114 19.7793 16.0633 19.448 16.0633 18.9556C16.0633 18.4739 15.7118 18.1422 15.1791 18.1422H13.1601V10.478C13.1601 9.93589 12.8087 9.57375 12.2863 9.57375H9.10199C8.57999 9.57375 8.22813 9.89517 8.22813 10.3777C8.22813 10.88 8.57956 11.2113 9.10242 11.2113H11.3018V18.1422H8.82085C8.28856 18.1422 7.93713 18.4739 7.93713 18.956Z" fill="#2E4049"/>
</g>
</svg>
