<svg width="36" height="36" viewBox="0 0 36 36" fill="none" xmlns="http://www.w3.org/2000/svg">
<rect width="36" height="36" rx="18" fill="#28A8EA"/>
<g style="mix-blend-mode:screen">
<path d="M24.0777 10.5H11.9216C9.68651 10.5 8.26986 12.9109 9.39433 14.8599L16.8966 27.8632C17.3862 28.7123 18.6131 28.7123 19.1027 27.8632L26.6065 14.8599C27.7294 12.914 26.3128 10.5 24.0792 10.5H24.0777ZM16.8905 23.9637L15.2567 20.8016L11.3143 13.7508C11.0542 13.2995 11.3754 12.7212 11.9201 12.7212H16.889V23.9652L16.8905 23.9637ZM24.682 13.7493L20.7411 20.8032L19.1072 23.9637V12.7197H24.0762C24.6208 12.7197 24.9421 13.298 24.682 13.7493Z" fill="white"/>
</g>
</svg>
