<svg width="25" height="24" viewBox="0 0 25 24" fill="none" xmlns="http://www.w3.org/2000/svg">
<path d="M16.94 3.1001C15.13 3.1001 13.51 3.9801 12.5 5.3301C11.49 3.9801 9.87 3.1001 8.06 3.1001C4.99 3.1001 2.5 5.6001 2.5 8.6901C2.5 9.8801 2.69 10.9801 3.02 12.0001C4.6 17.0001 9.47 19.9901 11.88 20.8101C12.22 20.9301 12.78 20.9301 13.12 20.8101C15.53 19.9901 20.4 17.0001 21.98 12.0001C22.31 10.9801 22.5 9.8801 22.5 8.6901C22.5 5.6001 20.01 3.1001 16.94 3.1001Z" fill="#28A8EA"/>
<rect x="5.5" y="6" width="14" height="14" rx="7" fill="#28A8EA"/>
<g style="mix-blend-mode:screen">
<path d="M14.8636 10.0835H10.1362C9.26698 10.0835 8.71606 11.0211 9.15335 11.779L12.0709 16.8359C12.2613 17.166 12.7384 17.166 12.9288 16.8359L15.847 11.779C16.2837 11.0223 15.7328 10.0835 14.8642 10.0835H14.8636ZM12.0685 15.3194L11.4331 14.0897L9.9 11.3477C9.79886 11.1722 9.92378 10.9473 10.1356 10.9473H12.0679V15.32L12.0685 15.3194ZM15.0985 11.3471L13.566 14.0903L12.9306 15.3194V10.9467H14.863C15.0748 10.9467 15.1997 11.1716 15.0985 11.3471Z" fill="white"/>
</g>
</svg>
